<?xml version="1.0" encoding="UTF-8"?>
<svg width="292px" height="229px" viewBox="0 0 292 229" version="1.1" xmlns="http://www.w3.org/2000/svg" xmlns:xlink="http://www.w3.org/1999/xlink">
    <!-- Generator: Sketch 61 (89581) - https://sketch.com -->
    <title>hero</title>
    <desc>Created with Sketch.</desc>
    <g id="Play-2" stroke="none" stroke-width="1" fill="none" fill-rule="evenodd">
        <g id="main" transform="translate(-209.000000, -168.000000)" fill-rule="nonzero">
            <g id="Group-2" transform="translate(209.000000, 168.000000)">
                <g id="Group-6">
                    <g id="hero">
                        <polygon id="Rectangle" fill="#FF6584" transform="translate(236.111864, 113.272432) rotate(150.000000) translate(-236.111864, -113.272432) " points="229.344908 106.508965 242.872777 106.515008 242.87882 120.035898 229.350951 120.029855"></polygon>
                        <path d="M237.954512,125 L231,112.954421 L243.045488,106 L250,118.045723 L237.954512,125 Z M231.80391,113.169905 L238.169999,124.196078 L249.196084,117.830228 L242.830004,106.803916 L231.80391,113.169905 Z" id="Shape" fill="#2F2E41"></path>
                        <circle id="Oval" fill="#D0CDE1" cx="227.5" cy="152.5" r="5.5"></circle>
                        <path d="M232,158 C228.686292,158 226,155.313708 226,152 C226,148.686292 228.686292,146 232,146 C235.313708,146 238,148.686292 238,152 C237.996315,155.312181 235.312181,157.996315 232,158 Z M232,146.6 C229.017662,146.6 226.6,149.017662 226.6,152 C226.6,154.982338 229.017662,157.4 232,157.4 C234.982338,157.4 237.4,154.982338 237.4,152 C237.396538,149.019097 234.980903,146.603462 232,146.6 L232,146.6 Z" id="Shape" fill="#2F2E41"></path>
                        <circle id="Oval" fill="#E1F5FE" cx="78.5" cy="118.5" r="31.5"></circle>
                        <path d="M69.3696248,163.693391 L76.9986267,168.508357 L76.9986267,135.96119 L68.4474246,130.564189 C67.7404625,130.117991 67.2238679,129.417581 67,128.601751 L67,128.601751 L67,128.601751 C67.816937,128.44281 68.66268,128.60223 69.3696511,129.048421 L76.998653,133.863387 L76.998653,121.242545 C76.9986568,118.800992 77.2926488,116.368655 77.8740455,114 C78.4554518,116.368653 78.7494448,118.800992 78.7494409,121.242545 L78.7494409,141.842092 L90.004373,134.738672 C90.9030702,134.171469 91.9428868,133.879286 93,133.896918 C92.5449783,134.868912 91.8252688,135.687233 90.9265732,136.254437 L78.7494058,143.939915 L78.7494058,208 L76.9986179,208 L76.9986179,170.606174 L68.4474158,165.209174 C67.7404526,164.762977 67.2238576,164.062566 67,163.246736 L67,163.246736 L67,163.246736 C67.8169207,163.087798 68.6626554,163.247212 69.3696248,163.693391 L69.3696248,163.693391 Z" id="Path" fill="#3F3D56"></path>
                        <circle id="Oval" fill="#E1F5FE" cx="31.5" cy="120.5" r="31.5"></circle>
                        <path d="M39.6303712,166.693391 L32.0013659,171.508357 L32.0013659,138.96119 L40.5525689,133.564189 C41.2595313,133.117991 41.7761261,132.417581 42,131.601751 L42,131.601751 L42,131.601751 C41.1830568,131.442809 40.3373132,131.602229 39.630342,132.048421 L32.0013367,136.863387 L32.0013367,124.242545 C32.0013333,121.800992 31.7073403,119.368655 31.1259408,117 C30.5445366,119.368654 30.2505444,121.800992 30.2505479,124.242545 L30.2505479,144.842092 L18.9956313,137.738678 C18.0969325,137.171475 17.0571146,136.879292 16,136.896924 C16.4550221,137.868919 17.1747332,138.68724 18.0734307,139.254443 L30.2505684,146.939915 L30.2505684,211 L32.0013571,211 L32.0013571,173.606174 L40.5525601,168.209174 C41.2595237,167.762977 41.7761189,167.062566 42,166.246736 L42,166.246736 L42,166.246736 C41.1830621,166.087802 40.3373351,166.247216 39.6303712,166.693391 L39.6303712,166.693391 Z" id="Path" fill="#3F3D56"></path>
                        <ellipse id="Oval" fill="#3F3D56" cx="115" cy="211.5" rx="89" ry="4.5"></ellipse>
                        <ellipse id="Oval" fill="#3F3D56" cx="195" cy="218.5" rx="89" ry="4.5"></ellipse>
                        <ellipse id="Oval" fill="#3F3D56" cx="121" cy="224.5" rx="89" ry="4.5"></ellipse>
                        <polygon id="Path" fill="#FFB8B8" points="139.68 206 138 214 145 214 144.16 206"></polygon>
                        <polygon id="Path" fill="#FFB8B8" points="113.68 202 112 210 119 210 118.16 202"></polygon>
                        <path d="M124,126.180985 C124,126.180985 126.385237,136.514601 128.770475,139.762309 C131.155712,143.010017 136.82065,152.457894 136.82065,152.457894 C136.82065,152.457894 138.013269,164.267741 142.485589,161.610526 C146.957909,158.95331 140.100352,150.391171 140.100352,150.391171 L131.453867,131.495416 L129.664939,125 L124,126.180985 Z" id="Path" fill="#FFB8B8"></path>
                        <circle id="Oval" fill="#FFB8B8" cx="137" cy="91" r="8"></circle>
                        <path d="M139,96.3 L135.1,105 L127,102.9 C127,102.9 133.3,96 132.4,93 L139,96.3 Z" id="Path" fill="#FFB8B8"></path>
                        <path d="M126.313577,102 C126.313577,102 135.868871,102.298237 138.257695,105.578841 C140.646518,108.859445 141.84093,110.350628 141.84093,110.350628 C141.84093,110.350628 145.125562,111.245338 145.424165,115.420652 C145.722768,119.595967 146.319974,126.455411 146.319974,126.455411 C146.319974,126.455411 153.486444,134.209566 154.680856,149.121402 C155.875267,164.033238 166.027767,207.874036 154.680856,208.172273 C143.333944,208.47051 135.271665,212.645824 136.76468,207.277563 C138.257695,201.909302 140.646518,170.892683 140.646518,170.892683 C140.646518,170.892683 138.8549,209.066983 131.68843,208.768746 C124.52196,208.47051 115.265269,203.698722 113.175049,203.102249 C111.084828,202.505775 128.403798,165.822658 128.403798,165.822658 L130.494018,133.911329 C130.494018,133.911329 115.265269,107.070024 126.313577,102 Z" id="Path" fill="#2F2E41"></path>
                        <polygon id="Path" fill="#2F2E41" points="123 111 124.481481 130 131 130"></polygon>
                        <path d="M136,126.180985 C136,126.180985 138.385237,136.514601 140.770475,139.762309 C143.155712,143.010017 148.82065,152.457894 148.82065,152.457894 C148.82065,152.457894 150.013269,164.267741 154.485589,161.610526 C158.957909,158.95331 152.100352,150.391171 152.100352,150.391171 L143.453867,131.495416 L141.664939,125 L136,126.180985 Z" id="Path" fill="#FFB8B8"></path>
                        <path d="M140.139894,211.655502 C140.139894,211.655502 138.054473,209.117702 137.458638,210.386602 C136.862803,211.655502 134.181547,218 138.054473,218 C141.927398,218 158.908687,217.048325 156.823266,213.241626 C154.737844,209.434927 151.758671,210.386602 151.758671,210.386602 L147.885745,210.386602 C147.885745,210.386602 145.098368,207.073718 144.555592,208.254324 C144.012817,209.43493 143.119068,211.338277 143.119068,211.338277 C143.119068,211.338277 141.629481,212.924401 140.139894,211.655502 Z" id="Path" fill="#2F2E41"></path>
                        <path d="M112.844954,206.577228 C112.844954,206.577228 112.335132,203.390218 111.22278,204.10428 C110.110429,204.818341 104.797251,208.548557 108.028968,210.627238 C111.260685,212.70592 125.891896,221.044737 125.997242,216.823868 C126.102588,212.602998 123.155274,211.779408 123.155274,211.779408 L119.923557,209.700729 C119.923557,209.700729 119.203759,205.50545 118.178486,206.176053 C117.153214,206.846656 115.484684,207.917747 115.484684,207.917747 C115.484684,207.917747 113.472757,208.41058 112.844954,206.577228 Z" id="Path" fill="#2F2E41"></path>
                        <path d="M131.939853,104.046758 C131.939853,104.046758 129.825183,108.321409 131.939853,115.954716 C134.054524,123.588022 135.565003,130 135.565003,130 C135.565003,130 140.398535,126.946677 142.513205,127.862674 C144.627876,128.778671 139.168099,107.514315 139.168099,107.514315 C139.168099,107.514315 135.867098,100.38277 131.939853,104.046758 Z" id="Path" fill="#2F2E41"></path>
                        <path d="M146.673555,88.6398187 C146.673555,88.6398187 149.524863,78.6106305 138.37394,80.3310061 C138.37394,80.3310061 130.984677,77.7584619 127.042951,86.9569113 L123,96.6128078 L124.332216,96.1269844 L124.714724,97.4782551 L126.631289,98.2930121 L127.742333,96.7179005 L127.841718,98.8530772 L143.92145,103 C143.92145,103 137.267531,97.5195064 138.332567,89.6915528 L139.501233,91.3886173 L146.673555,88.6398187 Z" id="Path" fill="#2F2E41"></path>
                        <rect id="Rectangle" fill="#B3E5FC" x="206" y="162" width="59" height="56"></rect>
                        <rect id="Rectangle" fill="#3F3D56" x="230" y="161" width="13" height="59"></rect>
                        <ellipse id="Oval" fill="#E1F5FE" cx="55" cy="54.5" rx="55" ry="54.5"></ellipse>
                        <path d="M69.8075515,133.641808 L56.3100853,141.939942 L56.3100853,85.8480132 L71.4391334,76.546813 C72.6899236,75.7778381 73.6039091,74.5707463 74,73.1647371 L74,73.1647102 L74,73.1647102 C72.5546456,72.8907995 71.0583415,73.1655441 69.8075515,73.9345037 L56.3100853,82.2326377 L56.3100853,60.4818397 C56.3100795,56.2740549 55.7899384,52.082152 54.7613095,48 C53.7326698,52.0821499 53.2125295,56.2740543 53.2125367,60.4818397 L53.2125367,95.9831895 L33.2999578,83.7411223 C31.7099538,82.7636034 29.8702776,82.2600569 28,82.2904458 C28.8050403,83.9655841 30.0783744,85.3758823 31.6683759,86.3534047 L53.2125367,99.5985621 L53.2125367,210 L56.3100853,210 L56.3100853,145.555327 L71.4391334,136.254126 C72.6899236,135.485153 73.6039092,134.278062 74,132.872053 L74,132.872027 L74,132.872027 C72.5546472,132.598111 71.0583426,132.872851 69.8075515,133.641808 Z" id="Path" fill="#3F3D56"></path>
                        <path d="M52.031263,218.448275 C51.6776392,218.456203 51.3360157,218.583351 51.057637,218.810647 C50.227822,216.490806 48.94321,215 47.5,215 C46.05679,215 44.772193,216.490806 43.942378,218.810647 C43.6639993,218.583351 43.3223758,218.456203 42.968752,218.448275 C41.329156,218.448275 40,221.381584 40,225 L55,225 C55,221.381584 53.670859,218.448275 52.031263,218.448275 Z" id="Path" fill="#3F3D56"></path>
                        <path d="M83.031263,202.448275 C82.6776392,202.456203 82.3360157,202.583351 82.057637,202.810647 C81.227822,200.490806 79.94321,199 78.5,199 C77.05679,199 75.772193,200.490806 74.942378,202.810647 C74.6639993,202.583351 74.3223758,202.456203 73.968752,202.448275 C72.329156,202.448275 71,205.381584 71,209 L86,209 C86,205.381584 84.670859,202.448275 83.031263,202.448275 Z" id="Path" fill="#3F3D56"></path>
                        <path d="M46.031263,207.448275 C45.6776392,207.456203 45.3360157,207.583351 45.057637,207.810647 C44.227822,205.490806 42.94321,204 41.5,204 C40.05679,204 38.772193,205.490806 37.942378,207.810647 C37.6639993,207.583351 37.3223758,207.456203 36.968752,207.448275 C35.329156,207.448275 34,210.381584 34,214 L49,214 C49,210.381584 47.670859,207.448275 46.031263,207.448275 Z" id="Path" fill="#3F3D56"></path>
                        <path d="M277.988431,156.916093 C277.661192,162.162798 270.407495,166 270.407495,166 C270.407495,166 263.684331,161.330613 264.01157,156.083907 C264.338809,150.837202 271.592505,147 271.592505,147 C271.592505,147 278.315661,151.669387 277.988431,156.916093 Z" id="Path" fill="#3F3D56"></path>
                        <path d="M278.105294,173.989592 C272.85859,173.679132 269,166.437866 269,166.437866 C269,166.437866 273.647996,159.699957 278.894706,160.010408 C284.141416,160.320859 288,167.562134 288,167.562134 C288,167.562134 283.351998,174.300052 278.105294,173.989592 Z" id="Path" fill="#3F3D56"></path>
                        <polygon id="Path" fill="#000000" opacity="0.1" points="266 168.195099 266 188 247 162 261.473125 162"></polygon>
                        <polygon id="Rectangle" fill="#B3E5FC" transform="translate(265.223423, 170.310791) rotate(52.849960) translate(-265.223423, -170.310791) " points="229.385073 164.203982 301.067857 164.16837 301.061773 176.417599 229.37899 176.453211"></polygon>
                        <polygon id="Rectangle" fill="#3F3D56" transform="translate(265.039278, 169.326411) rotate(52.849960) translate(-265.039278, -169.326411) " points="258.620885 162.906226 271.464051 162.899845 271.45767 175.746597 258.614505 175.752978"></polygon>
                        <polygon id="Rectangle" fill="#D0CDE1" transform="translate(218.370456, 129.616311) rotate(-165.000000) translate(-218.370456, -129.616311) " points="211.606989 122.858888 225.137412 122.855399 225.133923 136.373735 211.6035 136.377224"></polygon>
                        <path d="M217.407483,140 L204,136.407547 L207.592514,123 L221,126.592456 L217.407483,140 Z M204.719134,135.992358 L216.99229,139.280878 L220.280866,127.007642 L208.007707,123.719122 L204.719134,135.992358 Z" id="Shape" fill="#2F2E41"></path>
                    </g>
                </g>
            </g>
        </g>
    </g>
</svg>